Coordinates
version=1
nRows=24
nColumns=24
inDegrees=yes

Units are S.I. units (second, meters, Newtons, ...)
Angles are in degrees.

endheader
time	pelvis_tilt	pelvis_list	pelvis_rotation	pelvis_tx	pelvis_ty	pelvis_tz	hip_flexion_r	hip_adduction_r	hip_rotation_r	knee_angle_r	ankle_angle_r	subtalar_angle_r	mtp_angle_r	hip_flexion_l	hip_adduction_l	hip_rotation_l	knee_angle_l	ankle_angle_l	subtalar_angle_l	mtp_angle_l	lumbar_extension	lumbar_bending	lumbar_rotation
      4.46500000	     -8.67719594	      1.70871478	     -7.91550115	     -0.49365138	     -0.05089767	      0.63216551	     -8.64896415	     -1.42901988	      4.72773401	    -11.52640454	     14.38697104	      1.76148316	      4.38772509	     38.02739029	     -2.85470080	    -18.27605690	    -13.48712996	     -2.22174700	     16.93085609	     -4.04727526	      4.04368105	     -1.26432733	     12.00624618
      4.47000000	     -8.78577556	      2.12683919	     -7.97381444	     -0.48591559	     -0.05218326	      0.63174092	     -8.69444880	     -1.96470548	      4.72364907	    -12.12708283	     14.30726796	      1.84715208	      4.44021048	     38.15775835	     -2.46909876	    -18.52570493	    -13.98764648	     -3.10411603	     16.18088444	     -2.72628858	      4.28841958	     -1.75100957	     12.14009320
      4.47500000	     -8.87588251	      2.57055206	     -7.98606477	     -0.47811717	     -0.05340262	      0.63123826	     -8.75138617	     -2.53418666	      4.66165110	    -12.74827489	     14.17688529	      1.99697988	      4.53881105	     38.31105819	     -2.03855745	    -18.66166148	    -14.61716148	     -4.03150763	     15.42912980	     -1.54175239	      4.52279515	     -2.27210637	     12.21183380
      4.48000000	     -8.96890961	      3.03038919	     -7.98620667	     -0.47029119	     -0.05455064	      0.63071530	     -8.78253823	     -3.12270410	      4.59470817	    -13.40745306	     13.96839562	      2.15361306	      4.67643653	     38.51300458	     -1.60425463	    -18.74220525	    -15.37602198	     -4.97528944	     14.73021435	     -0.45460521	      4.76648580	     -2.81136463	     12.28448918
      4.48500000	     -9.06903622	      3.51729286	     -8.01818302	     -0.46247867	     -0.05562736	      0.63022436	     -8.77230272	     -3.74194039	      4.67233913	    -14.11281958	     13.70220124	      2.26946601	      4.82335743	     38.77464394	     -1.18452086	    -18.77614839	    -16.30054247	     -5.76223555	     14.11793642	      0.08791099	      5.02285248	     -3.37718496	     12.36418987
      4.49000000	     -9.15680820	      4.00897808	     -7.92792018	     -0.45457998	     -0.05661803	      0.62954057	     -8.76364255	     -4.37173937	      4.49169652	    -14.86887821	     13.34027885	      2.55447433	      5.07705527	     39.05836768	     -0.68469736	    -18.68185719	    -17.27215896	     -6.63973124	     13.48672026	      0.92409776	      5.26735521	     -3.95503727	     12.33850953
      4.49500000	     -9.23077370	      4.48732037	     -7.82908427	     -0.44666087	     -0.05751434	      0.62889388	     -8.74935520	     -4.98334509	      4.34452672	    -15.66688084	     12.85764985	      2.77257488	      5.35801424	     39.36618511	     -0.21693762	    -18.58564570	    -18.36333623	     -7.35869806	     13.02919326	      1.58712242	      5.49792441	     -4.53193178	     12.29750147
      4.50000000	     -9.30168124	      4.94975147	     -7.69550768	     -0.43870275	     -0.05832906	      0.62817770	     -8.71531359	     -5.58003235	      4.19307246	    -16.52291476	     12.26506862	      3.01944979	      5.67438791	     39.69164227	      0.25473334	    -18.43241813	    -19.52857282	     -7.91563482	     12.63121983	      2.02387282	      5.72478966	     -5.08804295	     12.24424763
      4.50500000	     -9.37027437	      5.40006029	     -7.55087376	     -0.43075404	     -0.05904352	      0.62748446	     -8.63774858	     -6.16528799	      4.01951322	    -17.46320947	     11.57116184	      3.31915392	      6.04870706	     40.01297500	      0.71711597	    -18.23209842	    -20.71542260	     -8.35738015	     12.29943846	      2.31846103	      5.94289219	     -5.64428050	     12.15803843
      4.51000000	     -9.43428482	      5.81974537	     -7.37798072	     -0.42275080	     -0.05971068	      0.62667491	     -8.52546561	     -6.73315120	      3.77908097	    -18.48983390	     10.77438640	      3.71056883	      6.54378387	     40.31849116	      1.18222511	    -18.01772444	    -21.91060378	     -8.61875964	     11.93384580	      2.55702187	      6.15553210	     -6.15329046	     12.06542141
      4.51500000	     -9.51115305	      6.22367654	     -7.19721986	     -0.41473887	     -0.06025278	      0.62592031	     -8.35343230	     -7.27933935	      3.57477464	    -19.59991891	      9.83992878	      4.11324257	      7.01298734	     40.59362124	      1.63430508	    -17.80336930	    -23.04689511	     -8.79680699	     11.65381668	      2.70010954	      6.38254326	     -6.65604876	     11.94141124
      4.52000000	     -9.58598358	      6.58748980	     -6.98879352	     -0.40671608	     -0.06075725	      0.62509988	     -8.12708528	     -7.79052708	      3.30329129	    -20.82960148	      8.82994469	      4.55751347	      7.48043812	     40.83235198	      2.07623647	    -17.62634099	    -24.14688998	     -8.80367994	     11.36292982	      2.84844589	      6.59936171	     -7.11142296	     11.80435599
      4.52500000	     -9.65618183	      6.89165905	     -6.78166455	     -0.39879044	     -0.06110454	      0.62419463	     -7.83103797	     -8.26705754	      2.98010424	    -22.16430349	      7.68978635	      5.19104417	      8.09101423	     41.00054477	      2.49187761	    -17.39809209	    -25.13013976	     -8.76387986	     11.05408345	      3.02911579	      6.78763916	     -7.48888220	     11.66456922
      4.53000000	     -9.69084789	      7.17501066	     -6.56023174	     -0.39086264	     -0.06123920	      0.62323720	     -7.54187247	     -8.73441790	      2.69338809	    -23.51479588	      6.35849582	      5.77603694	      8.99791449	     41.04136701	      2.93747823	    -17.13331497	    -25.95120758	     -8.69434922	     10.70658608	      3.34073153	      6.93028041	     -7.84834526	     11.53734281
      4.53500000	     -9.75542654	      7.43342111	     -6.32387806	     -0.38306267	     -0.06131453	      0.62230117	     -7.12969631	     -9.17072703	      2.38663969	    -25.01351298	      4.98710014	      6.33158208	      9.77270244	     41.05759475	      3.35832453	    -16.96260556	    -26.67167207	     -8.57265046	     10.48479263	      3.77531998	      7.08157223	     -8.18276242	     11.35308030
      4.54000000	     -9.82985410	      7.66137635	     -6.05013006	     -0.37522819	     -0.06126631	      0.62134949	     -6.67590860	     -9.57379490	      2.06913662	    -26.56771307	      3.53161138	      6.94225650	     10.23565962	     41.01193283	      3.76895555	    -16.86225271	    -27.29806957	     -8.32293487	     10.48588845	      4.19436204	      7.24761014	     -8.48805811	     11.11872431
      4.54500000	     -9.89009237	      7.90003935	     -5.81260194	     -0.36756951	     -0.06104024	      0.62028893	     -6.13743668	    -10.01886989	      1.77307718	    -28.18965384	      2.00208112	      7.48156891	     11.17301153	     40.85333235	      4.24502917	    -16.63410639	    -27.67960069	     -8.20419344	     10.13072060	      5.04594169	      7.38051089	     -8.78371970	     10.97370111
      4.55000000	     -9.96565279	      8.10543366	     -5.52598325	     -0.35992122	     -0.06072958	      0.61929937	     -5.55213332	    -10.40512808	      1.48625732	    -29.87221005	      0.47708153	      7.99701708	     11.57571633	     40.67119256	      4.66711302	    -16.58738307	    -28.06010629	     -7.86882210	     10.28764552	      5.56970515	      7.52367555	     -9.06318406	     10.70653021
      4.55500000	    -10.02906000	      8.33003811	     -5.28019272	     -0.35241940	     -0.06025906	      0.61825750	     -4.89297428	    -10.82613153	      1.24875706	    -31.57875628	     -1.09909478	      8.26464343	     12.57260056	     40.38299703	      5.14792739	    -16.43728971	    -28.18952333	     -7.74359114	     10.02971516	      6.82530987	      7.64908767	     -9.34180495	     10.53170421
      4.56000000	    -10.12204000	      8.55576612	     -5.02541560	     -0.34502956	     -0.05975219	      0.61725312	     -4.12637827	    -11.23407238	      1.05624353	    -33.40551041	     -2.51515626	      8.61234973	     12.84969443	     40.10612646	      5.60573123	    -16.38241288	    -28.34805871	     -7.34325638	     10.19207497	      7.23942410	      7.79425969	     -9.62502438	     10.30077027
      4.56500000	    -10.24469750	      8.79151976	     -4.80986560	     -0.33779916	     -0.05919442	      0.61621709	     -3.23506433	    -11.65583951	      0.92637797	    -35.28575786	     -3.84676049	      8.78349810	     13.42591201	     39.80382374	      6.08508438	    -16.26241862	    -28.34795240	     -7.05577163	     10.09365009	      8.08691302	      7.96766709	     -9.89673058	     10.16023277
      4.57000000	    -10.28496250	      9.03197238	     -4.56083184	     -0.33053640	     -0.05844544	      0.61530129	     -2.42687507	    -12.04325921	      0.82502879	    -37.16135654	     -5.11212272	      8.66293014	     13.55570170	     39.37088811	      6.57993772	    -16.20885939	    -28.33012465	     -6.58157491	     10.28040353	      8.41416971	      8.05723096	    -10.20929503	      9.90401621
      4.57500000	    -10.47698428	      9.32307111	     -4.38136369	     -0.32346675	     -0.05779638	      0.61433265	     -1.32395603	    -12.48763157	      0.86069486	    -39.13381020	     -6.18651006	      8.53682259	     13.97908315	     39.07122089	      7.08459570	    -16.17622638	    -28.18861931	     -6.28874400	     10.21976728	      9.06465852	      8.31686164	    -10.52419116	      9.76791109
      4.58000000	    -10.58131983	      9.60164705	     -4.17829080	     -0.31645849	     -0.05699646	      0.61346487	     -0.30101787	    -12.88329667	      0.90549260	    -41.09455081	     -7.14144254	      8.06451325	     14.22942321	     38.64558747	      7.59921374	    -16.11949109	    -28.00594402	     -5.92419547	     10.28913159	      9.57534788	      8.46902116	    -10.85692769	      9.56961671
